<?xml version="1.0" encoding="UTF-8"?><svg xmlns="http://www.w3.org/2000/svg" xmlns:xlink="http://www.w3.org/1999/xlink" contentScriptType="text/ecmascript" width="3374.88pt" zoomAndPan="magnify" contentStyleType="text/css" viewBox="0 0 3374.88 4049.999958" height="4049.999958pt" preserveAspectRatio="xMidYMid meet" version="1.2"><g xml:id="surface1" id="surface1"><path style=" stroke:none;fill-rule:nonzero;fill:rgb(0%,0%,0%);fill-opacity:1;" d="M 1683.652344 2231.617188 C 1681.375 2231.617188 1679.125 2231.398438 1676.894531 2230.957031 C 1674.660156 2230.515625 1672.496094 2229.863281 1670.390625 2229 C 1668.289062 2228.136719 1666.289062 2227.074219 1664.390625 2225.820312 C 1662.496094 2224.566406 1660.738281 2223.140625 1659.121094 2221.539062 L 871.390625 1434.160156 C 870.632812 1433.347656 869.914062 1432.503906 869.234375 1431.621094 C 868.558594 1430.742188 867.921875 1429.832031 867.332031 1428.890625 C 866.742188 1427.949219 866.199219 1426.984375 865.699219 1425.988281 C 865.203125 1424.996094 864.753906 1423.980469 864.355469 1422.945312 C 863.953125 1421.90625 863.605469 1420.855469 863.304688 1419.785156 C 863.007812 1418.714844 862.761719 1417.632812 862.566406 1416.539062 C 862.371094 1415.445312 862.230469 1414.34375 862.140625 1413.238281 C 862.054688 1412.128906 862.019531 1411.023438 862.035156 1409.910156 C 862.054688 1408.800781 862.125 1407.691406 862.25 1406.589844 C 862.375 1405.484375 862.550781 1404.390625 862.78125 1403.304688 C 863.011719 1402.214844 863.292969 1401.144531 863.625 1400.082031 C 863.960938 1399.023438 864.34375 1397.980469 864.777344 1396.960938 C 865.207031 1395.9375 865.691406 1394.9375 866.21875 1393.960938 C 866.75 1392.984375 867.324219 1392.035156 867.945312 1391.113281 C 868.566406 1390.191406 869.230469 1389.300781 869.933594 1388.445312 C 870.640625 1387.585938 871.386719 1386.765625 872.171875 1385.976562 C 872.957031 1385.191406 873.777344 1384.445312 874.636719 1383.738281 C 875.492188 1383.03125 876.382812 1382.367188 877.304688 1381.746094 C 878.226562 1381.125 879.171875 1380.546875 880.148438 1380.015625 C 881.125 1379.484375 882.125 1379.003906 883.148438 1378.570312 C 884.171875 1378.132812 885.214844 1377.75 886.273438 1377.414062 C 887.332031 1377.082031 888.40625 1376.796875 889.492188 1376.566406 C 890.582031 1376.335938 891.675781 1376.15625 892.78125 1376.03125 C 893.882812 1375.90625 894.992188 1375.832031 896.101562 1375.8125 C 897.214844 1375.792969 898.324219 1375.828125 899.433594 1375.914062 C 900.539062 1376 901.640625 1376.140625 902.734375 1376.332031 C 903.832031 1376.527344 904.914062 1376.769531 905.984375 1377.066406 C 907.054688 1377.363281 908.109375 1377.710938 909.148438 1378.109375 C 910.183594 1378.507812 911.199219 1378.953125 912.195312 1379.449219 C 913.191406 1379.945312 914.160156 1380.488281 915.101562 1381.078125 C 916.042969 1381.667969 916.957031 1382.300781 917.835938 1382.976562 C 918.71875 1383.652344 919.566406 1384.367188 920.378906 1385.128906 L 1683.652344 2148.0625 L 2446.921875 1385.128906 C 2447.734375 1384.371094 2448.582031 1383.652344 2449.464844 1382.976562 C 2450.34375 1382.300781 2451.257812 1381.667969 2452.199219 1381.078125 C 2453.140625 1380.488281 2454.109375 1379.945312 2455.105469 1379.449219 C 2456.101562 1378.957031 2457.117188 1378.507812 2458.152344 1378.109375 C 2459.191406 1377.710938 2460.246094 1377.363281 2461.316406 1377.066406 C 2462.386719 1376.769531 2463.46875 1376.527344 2464.566406 1376.332031 C 2465.660156 1376.140625 2466.761719 1376 2467.867188 1375.914062 C 2468.976562 1375.828125 2470.085938 1375.792969 2471.199219 1375.8125 C 2472.308594 1375.832031 2473.417969 1375.90625 2474.519531 1376.03125 C 2475.625 1376.15625 2476.71875 1376.335938 2477.808594 1376.566406 C 2478.894531 1376.800781 2479.96875 1377.082031 2481.027344 1377.417969 C 2482.085938 1377.75 2483.128906 1378.136719 2484.152344 1378.570312 C 2485.175781 1379.003906 2486.175781 1379.488281 2487.152344 1380.015625 C 2488.128906 1380.546875 2489.074219 1381.125 2489.996094 1381.746094 C 2490.917969 1382.367188 2491.808594 1383.03125 2492.664062 1383.738281 C 2493.519531 1384.445312 2494.34375 1385.191406 2495.128906 1385.980469 C 2495.914062 1386.765625 2496.660156 1387.585938 2497.367188 1388.445312 C 2498.070312 1389.300781 2498.734375 1390.191406 2499.355469 1391.113281 C 2499.976562 1392.035156 2500.550781 1392.984375 2501.082031 1393.960938 C 2501.609375 1394.9375 2502.089844 1395.9375 2502.523438 1396.960938 C 2502.957031 1397.984375 2503.339844 1399.023438 2503.675781 1400.082031 C 2504.007812 1401.144531 2504.289062 1402.214844 2504.519531 1403.304688 C 2504.75 1404.390625 2504.925781 1405.484375 2505.050781 1406.589844 C 2505.175781 1407.691406 2505.246094 1408.800781 2505.265625 1409.910156 C 2505.28125 1411.023438 2505.246094 1412.132812 2505.160156 1413.238281 C 2505.070312 1414.34375 2504.929688 1415.445312 2504.734375 1416.539062 C 2504.539062 1417.632812 2504.292969 1418.714844 2503.996094 1419.785156 C 2503.695312 1420.855469 2503.347656 1421.910156 2502.945312 1422.945312 C 2502.546875 1423.980469 2502.097656 1424.996094 2501.601562 1425.988281 C 2501.101562 1426.984375 2500.558594 1427.949219 2499.96875 1428.890625 C 2499.378906 1429.832031 2498.746094 1430.742188 2498.066406 1431.621094 C 2497.386719 1432.503906 2496.667969 1433.347656 2495.910156 1434.160156 L 1708.324219 2221.539062 C 1706.699219 2223.148438 1704.929688 2224.582031 1703.023438 2225.839844 C 1701.117188 2227.101562 1699.105469 2228.160156 1696.988281 2229.027344 C 1694.871094 2229.890625 1692.691406 2230.542969 1690.445312 2230.976562 C 1688.203125 2231.414062 1685.9375 2231.628906 1683.652344 2231.617188 Z M 1683.652344 2231.617188 "/></g></svg>