<?xml version="1.0" encoding="UTF-8"?><svg xmlns="http://www.w3.org/2000/svg" xmlns:xlink="http://www.w3.org/1999/xlink" contentScriptType="text/ecmascript" width="3374.88pt" zoomAndPan="magnify" contentStyleType="text/css" viewBox="0 0 3374.88 4049.999958" height="4049.999958pt" preserveAspectRatio="xMidYMid meet" version="1.2"><g xml:id="surface1" id="surface1"><path style=" stroke:none;fill-rule:nonzero;fill:rgb(0%,0%,0%);fill-opacity:1;" d="M 1683.652344 1375.726562 C 1681.375 1375.730469 1679.125 1375.949219 1676.894531 1376.390625 C 1674.660156 1376.832031 1672.496094 1377.484375 1670.390625 1378.347656 C 1668.289062 1379.210938 1666.289062 1380.273438 1664.390625 1381.527344 C 1662.496094 1382.78125 1660.738281 1384.207031 1659.121094 1385.804688 L 871.390625 2173.1875 C 870.632812 2174 869.914062 2174.84375 869.234375 2175.722656 C 868.558594 2176.605469 867.921875 2177.515625 867.332031 2178.457031 C 866.742188 2179.398438 866.199219 2180.363281 865.699219 2181.359375 C 865.203125 2182.351562 864.753906 2183.367188 864.355469 2184.402344 C 863.953125 2185.4375 863.605469 2186.492188 863.304688 2187.5625 C 863.007812 2188.632812 862.761719 2189.714844 862.566406 2190.808594 C 862.371094 2191.902344 862.230469 2193 862.140625 2194.109375 C 862.054688 2195.214844 862.019531 2196.324219 862.035156 2197.4375 C 862.054688 2198.546875 862.125 2199.652344 862.25 2200.757812 C 862.375 2201.863281 862.550781 2202.957031 862.78125 2204.042969 C 863.011719 2205.128906 863.292969 2206.203125 863.625 2207.265625 C 863.960938 2208.324219 864.34375 2209.363281 864.777344 2210.386719 C 865.207031 2211.410156 865.691406 2212.410156 866.21875 2213.386719 C 866.75 2214.363281 867.324219 2215.3125 867.945312 2216.234375 C 868.566406 2217.15625 869.230469 2218.046875 869.933594 2218.902344 C 870.640625 2219.761719 871.386719 2220.582031 872.171875 2221.367188 C 872.957031 2222.15625 873.777344 2222.902344 874.636719 2223.609375 C 875.492188 2224.316406 876.382812 2224.980469 877.304688 2225.601562 C 878.226562 2226.222656 879.171875 2226.800781 880.148438 2227.332031 C 881.125 2227.859375 882.125 2228.34375 883.148438 2228.777344 C 884.171875 2229.210938 885.214844 2229.597656 886.273438 2229.929688 C 887.332031 2230.265625 888.40625 2230.546875 889.492188 2230.78125 C 890.582031 2231.011719 891.675781 2231.191406 892.78125 2231.316406 C 893.882812 2231.441406 894.992188 2231.515625 896.101562 2231.535156 C 897.214844 2231.554688 898.324219 2231.519531 899.433594 2231.433594 C 900.539062 2231.347656 901.640625 2231.207031 902.734375 2231.015625 C 903.832031 2230.820312 904.914062 2230.578125 905.984375 2230.28125 C 907.054688 2229.984375 908.109375 2229.636719 909.148438 2229.238281 C 910.183594 2228.839844 911.199219 2228.390625 912.195312 2227.894531 C 913.191406 2227.402344 914.160156 2226.859375 915.101562 2226.269531 C 916.042969 2225.679688 916.957031 2225.046875 917.835938 2224.371094 C 918.71875 2223.695312 919.566406 2222.976562 920.378906 2222.21875 L 1683.652344 1459.285156 L 2446.921875 2222.21875 C 2447.734375 2222.976562 2448.582031 2223.695312 2449.464844 2224.371094 C 2450.34375 2225.046875 2451.257812 2225.679688 2452.199219 2226.269531 C 2453.140625 2226.859375 2454.109375 2227.398438 2455.105469 2227.894531 C 2456.101562 2228.390625 2457.117188 2228.839844 2458.152344 2229.238281 C 2459.191406 2229.636719 2460.246094 2229.980469 2461.316406 2230.277344 C 2462.386719 2230.574219 2463.46875 2230.820312 2464.566406 2231.011719 C 2465.660156 2231.207031 2466.761719 2231.347656 2467.867188 2231.433594 C 2468.976562 2231.519531 2470.085938 2231.554688 2471.199219 2231.535156 C 2472.308594 2231.515625 2473.417969 2231.441406 2474.519531 2231.316406 C 2475.625 2231.191406 2476.71875 2231.011719 2477.808594 2230.78125 C 2478.894531 2230.546875 2479.96875 2230.265625 2481.027344 2229.929688 C 2482.085938 2229.597656 2483.128906 2229.210938 2484.152344 2228.777344 C 2485.175781 2228.34375 2486.175781 2227.859375 2487.152344 2227.328125 C 2488.128906 2226.800781 2489.074219 2226.222656 2489.996094 2225.601562 C 2490.917969 2224.980469 2491.808594 2224.316406 2492.664062 2223.609375 C 2493.519531 2222.902344 2494.34375 2222.152344 2495.128906 2221.367188 C 2495.914062 2220.582031 2496.660156 2219.761719 2497.367188 2218.902344 C 2498.070312 2218.042969 2498.734375 2217.15625 2499.355469 2216.234375 C 2499.976562 2215.3125 2500.550781 2214.363281 2501.082031 2213.386719 C 2501.609375 2212.410156 2502.089844 2211.410156 2502.523438 2210.386719 C 2502.957031 2209.363281 2503.339844 2208.324219 2503.675781 2207.261719 C 2504.007812 2206.203125 2504.289062 2205.128906 2504.519531 2204.042969 C 2504.75 2202.957031 2504.925781 2201.863281 2505.050781 2200.757812 C 2505.175781 2199.652344 2505.246094 2198.546875 2505.265625 2197.4375 C 2505.28125 2196.324219 2505.246094 2195.214844 2505.160156 2194.109375 C 2505.070312 2193 2504.929688 2191.902344 2504.734375 2190.808594 C 2504.539062 2189.714844 2504.292969 2188.632812 2503.996094 2187.5625 C 2503.695312 2186.492188 2503.347656 2185.4375 2502.945312 2184.402344 C 2502.546875 2183.367188 2502.097656 2182.351562 2501.601562 2181.359375 C 2501.101562 2180.363281 2500.558594 2179.398438 2499.96875 2178.457031 C 2499.378906 2177.515625 2498.746094 2176.605469 2498.066406 2175.722656 C 2497.386719 2174.84375 2496.667969 2174 2495.910156 2173.1875 L 1708.324219 1385.804688 C 1706.699219 1384.199219 1704.929688 1382.765625 1703.023438 1381.507812 C 1701.117188 1380.246094 1699.105469 1379.183594 1696.988281 1378.320312 C 1694.871094 1377.457031 1692.691406 1376.804688 1690.445312 1376.371094 C 1688.203125 1375.933594 1685.9375 1375.71875 1683.652344 1375.726562 Z M 1683.652344 1375.726562 "/></g></svg>